name rise43.5482peak65.4966fall89.1036.mot
datacolumns 19
datarows 35
range 18.51326300000000 18.56993800000000
endheader
time	ground_force1_vx	ground_force1_vy	ground_force1_vz	ground_force1_px	ground_force1_py	ground_force1_pz	ground_force2_vx	ground_force2_vy	ground_force2_vz	ground_force2_px	ground_force2_py	ground_force2_pz	ground_torque1_x	ground_torque1_y	ground_torque1_z	ground_torque2_x	ground_torque2_y	ground_torque2_z	
18.51326300000000	-43.58960600000000	808.65564500000005	48.96434000000000	0.09253100000000	0.00000000000000	0.07955600000000	-1.81901000000000	6.89380100000000	1.83054400000000	0.00000000000000	0.00000000000000	0.00000000000000	0.00000000000000	14.13161900000000	0.00000000000000	0.00000000000000	0.53770700000000	0.00000000000000	
18.51494100000000	-43.92549700000000	807.53332100000000	48.96822500000000	0.09186100000000	0.00000000000000	0.07949100000000	-2.61166100000000	10.76932200000000	2.71494000000000	0.00000000000000	0.00000000000000	0.00000000000000	0.00000000000000	14.07996800000000	0.00000000000000	0.00000000000000	0.80725600000000	0.00000000000000	
18.51659200000000	-44.27224300000000	806.32052499999998	48.95594100000000	0.09119800000000	0.00000000000000	0.07942300000000	-3.47714300000000	15.24561000000000	3.70437600000000	0.00000000000000	0.00000000000000	0.00000000000000	0.00000000000000	14.02854200000000	0.00000000000000	0.00000000000000	1.11117600000000	0.00000000000000	
18.51826000000000	-44.63040400000000	805.01535799999999	48.92699400000000	0.09054000000000	0.00000000000000	0.07935200000000	-4.38643000000000	20.24562300000000	4.77259700000000	0.00000000000000	0.00000000000000	0.00000000000000	0.00000000000000	13.97741800000000	0.00000000000000	0.00000000000000	1.44205900000000	0.00000000000000	
18.51992300000000	-45.00050200000000	803.61586399999999	48.88090900000000	0.08988600000000	0.00000000000000	0.07927800000000	-5.30625500000000	25.66869700000000	5.88824800000000	0.32643300000000	0.00000000000000	-0.07196400000000	0.00000000000000	13.92666800000000	0.00000000000000	0.00000000000000	3.33115600000000	0.00000000000000	
18.52159200000000	-45.38302700000000	802.12003900000002	48.81722900000000	0.08923700000000	0.00000000000000	0.07920000000000	-6.20150100000000	31.39887600000000	7.01721200000000	0.33111300000000	0.00000000000000	-0.07244000000000	0.00000000000000	13.87635700000000	0.00000000000000	0.00000000000000	4.02202500000000	0.00000000000000	
18.52326000000000	-45.77842700000000	800.52582299999995	48.73551700000000	0.08859100000000	0.00000000000000	0.07912000000000	-7.03781000000000	37.31475300000000	8.12522900000000	0.33529900000000	0.00000000000000	-0.07290100000000	0.00000000000000	13.82654600000000	0.00000000000000	0.00000000000000	4.71394400000000	0.00000000000000	
18.52492200000000	-46.18710800000000	798.83110699999997	48.63535500000000	0.08794700000000	0.00000000000000	0.07903600000000	-7.78405700000000	43.29942400000000	9.18044500000000	0.33905400000000	0.00000000000000	-0.07334900000000	0.00000000000000	13.77729200000000	0.00000000000000	0.00000000000000	5.38769300000000	0.00000000000000	
18.52659000000000	-46.60942400000000	797.03372999999999	48.51635100000000	0.08730500000000	0.00000000000000	0.07894900000000	-8.41436400000000	49.24924700000000	10.15555900000000	0.34242600000000	0.00000000000000	-0.07378600000000	0.00000000000000	13.72864400000000	0.00000000000000	0.00000000000000	6.02632000000000	0.00000000000000	
18.52825900000000	-47.04568200000000	795.13147900000001	48.37813700000000	0.08666500000000	0.00000000000000	0.07885900000000	-8.90945900000000	55.08047300000000	11.02935000000000	0.34546000000000	0.00000000000000	-0.07421500000000	0.00000000000000	13.68064800000000	0.00000000000000	0.00000000000000	6.61616300000000	0.00000000000000	
18.52993800000000	-47.49612900000000	793.12209399999995	48.22036800000000	0.08602500000000	0.00000000000000	0.07876600000000	-9.25732300000000	60.73331300000000	11.78749500000000	0.34819200000000	0.00000000000000	-0.07463500000000	0.00000000000000	13.63334200000000	0.00000000000000	0.00000000000000	7.14745200000000	0.00000000000000	
18.53159100000000	-47.96095600000000	791.00327200000004	48.04273000000000	0.08538500000000	0.00000000000000	0.07867000000000	-9.45313900000000	66.17340799999999	12.42269900000000	0.35065500000000	0.00000000000000	-0.07504900000000	0.00000000000000	13.58676000000000	0.00000000000000	0.00000000000000	7.61450900000000	0.00000000000000	
18.53325700000000	-48.44029000000000	788.77266299999997	47.84493700000000	0.08474500000000	0.00000000000000	0.07857100000000	-9.49866900000000	71.39096200000000	12.93422500000000	0.35287600000000	0.00000000000000	-0.07545700000000	0.00000000000000	13.54093000000000	0.00000000000000	0.00000000000000	8.01556300000000	0.00000000000000	
18.53492400000000	-48.93419200000000	786.42787999999996	47.62673200000000	0.08410300000000	0.00000000000000	0.07846900000000	-9.40119300000000	76.39800099999999	13.32697000000000	0.35488100000000	0.00000000000000	-0.07586100000000	0.00000000000000	13.49587200000000	0.00000000000000	0.00000000000000	8.35228700000000	0.00000000000000	
18.53658700000000	-49.44265300000000	783.96649900000000	47.38789300000000	0.08346000000000	0.00000000000000	0.07836400000000	-9.17218200000000	81.22431000000000	13.61022900000000	0.35669000000000	0.00000000000000	-0.07625900000000	0.00000000000000	13.45160200000000	0.00000000000000	0.00000000000000	8.62911500000000	0.00000000000000	
18.53826100000000	-49.96559100000000	781.38606700000003	47.12822800000000	0.08281400000000	0.00000000000000	0.07825600000000	-8.82585300000000	85.91260800000001	13.79632100000000	0.35832300000000	0.00000000000000	-0.07665400000000	0.00000000000000	13.40812900000000	0.00000000000000	0.00000000000000	8.85246000000000	0.00000000000000	
18.53993800000000	-50.50285200000000	778.68410200000005	46.84758000000000	0.08216600000000	0.00000000000000	0.07814400000000	-8.37775500000000	90.51349900000000	13.89919600000000	0.35979600000000	0.00000000000000	-0.07704600000000	0.00000000000000	13.36545500000000	0.00000000000000	0.00000000000000	9.02989900000000	0.00000000000000	
18.54159100000000	-51.05420000000000	775.85810200000003	46.54583000000000	0.08151400000000	0.00000000000000	0.07803000000000	-7.84348100000000	95.08064500000000	13.93315600000000	0.36112400000000	0.00000000000000	-0.07743400000000	0.00000000000000	13.32357700000000	0.00000000000000	0.00000000000000	9.16940900000000	0.00000000000000	
18.54325800000000	-51.61932000000000	772.90555099999995	46.22289300000000	0.08085900000000	0.00000000000000	0.07791300000000	-7.23761100000000	99.66650400000000	13.91176400000000	0.36232000000000	0.00000000000000	-0.07781900000000	0.00000000000000	13.28248300000000	0.00000000000000	0.00000000000000	9.27870300000000	0.00000000000000	
18.54492200000000	-52.19781400000000	769.82392000000004	45.87872200000000	0.08020000000000	0.00000000000000	0.07779300000000	-6.57290000000000	104.31888600000001	13.84699500000000	0.36339600000000	0.00000000000000	-0.07820000000000	0.00000000000000	13.24215700000000	0.00000000000000	0.00000000000000	9.36470400000000	0.00000000000000	
18.54659400000000	-52.78919900000000	766.61068200000000	45.51331200000000	0.07953700000000	0.00000000000000	0.07767000000000	-5.85975700000000	109.07842200000000	13.74865500000000	0.36436400000000	0.00000000000000	-0.07857900000000	0.00000000000000	13.20257400000000	0.00000000000000	0.00000000000000	9.43316900000000	0.00000000000000	
18.54825900000000	-53.39290600000000	763.26331000000005	45.12669300000000	0.07886900000000	0.00000000000000	0.07754400000000	-5.10598800000000	113.97700700000000	13.62406600000000	0.36523200000000	0.00000000000000	-0.07895500000000	0.00000000000000	13.16370300000000	0.00000000000000	0.00000000000000	9.48847400000000	0.00000000000000	
18.54992100000000	-54.00827800000000	759.77929099999994	44.71893800000000	0.07819500000000	0.00000000000000	0.07741600000000	-4.31677800000000	119.03714100000001	13.47799100000000	0.36600800000000	0.00000000000000	-0.07932800000000	0.00000000000000	13.12550500000000	0.00000000000000	0.00000000000000	9.53354600000000	0.00000000000000	
18.55159500000000	-54.63456800000000	756.15612899999996	44.29016100000000	0.07751700000000	0.00000000000000	0.07728400000000	-3.49488200000000	124.27206200000001	13.31276600000000	0.36670200000000	0.00000000000000	-0.07969900000000	0.00000000000000	13.08793400000000	0.00000000000000	0.00000000000000	9.56990600000000	0.00000000000000	
18.55326100000000	-55.27093900000000	752.39135699999997	43.84051600000000	0.07683300000000	0.00000000000000	0.07715000000000	-2.64095300000000	129.68651199999999	13.12858100000000	0.36731900000000	0.00000000000000	-0.08006600000000	0.00000000000000	13.05093700000000	0.00000000000000	0.00000000000000	9.59782800000000	0.00000000000000	
18.55492300000000	-55.91646300000000	748.48254099999997	43.37020100000000	0.07614400000000	0.00000000000000	0.07701400000000	-1.75397300000000	135.27797300000000	12.92388000000000	0.36786500000000	0.00000000000000	-0.08043100000000	0.00000000000000	13.01445300000000	0.00000000000000	0.00000000000000	9.61654900000000	0.00000000000000	
18.55659100000000	-56.57012500000000	744.42729399999996	42.87945300000000	0.07544900000000	0.00000000000000	0.07687500000000	-0.83173200000000	141.03817100000001	12.69580900000000	0.36834700000000	0.00000000000000	-0.08079200000000	0.00000000000000	12.97841400000000	0.00000000000000	0.00000000000000	9.62452600000000	0.00000000000000	
18.55825900000000	-57.23081600000000	740.22328100000004	42.36855400000000	0.07474800000000	0.00000000000000	0.07673300000000	0.12869000000000	146.95471400000000	12.44068500000000	0.36876900000000	0.00000000000000	-0.08115100000000	0.00000000000000	12.94274400000000	0.00000000000000	0.00000000000000	9.61970500000000	0.00000000000000	
18.55992100000000	-57.89733800000000	735.86823100000004	41.83782800000000	0.07404100000000	0.00000000000000	0.07658800000000	1.13048200000000	153.01269800000000	12.15443900000000	0.36913600000000	0.00000000000000	-0.08150600000000	0.00000000000000	12.90736000000000	0.00000000000000	0.00000000000000	9.59977900000000	0.00000000000000	
18.56158900000000	-58.56840800000000	731.35994700000003	41.28763900000000	0.07332800000000	0.00000000000000	0.07644200000000	2.17670900000000	159.19617000000000	11.83300800000000	0.36945200000000	0.00000000000000	-0.08185800000000	0.00000000000000	12.87217000000000	0.00000000000000	0.00000000000000	9.56241600000000	0.00000000000000	
18.56325400000000	-59.24265400000000	726.69632000000001	40.71839500000000	0.07260900000000	0.00000000000000	0.07629200000000	3.27000500000000	165.48938000000001	11.47266000000000	0.36972000000000	0.00000000000000	-0.08220600000000	0.00000000000000	12.83707600000000	0.00000000000000	0.00000000000000	9.50545200000000	0.00000000000000	
18.56493800000000	-59.91862100000000	721.87533499999995	40.13054300000000	0.07188400000000	0.00000000000000	0.07614100000000	4.41234500000000	171.87776099999999	11.07023100000000	0.36994300000000	0.00000000000000	-0.08255100000000	0.00000000000000	12.80197100000000	0.00000000000000	0.00000000000000	9.42703300000000	0.00000000000000	
18.56659000000000	-60.59477000000000	716.89509199999998	39.52457400000000	0.07115300000000	0.00000000000000	0.07598700000000	5.60490900000000	178.34861300000000	10.62329200000000	0.37012500000000	0.00000000000000	-0.08289200000000	0.00000000000000	12.76674300000000	0.00000000000000	0.00000000000000	9.32571600000000	0.00000000000000	
18.56826000000000	-61.26948800000000	711.75381200000004	38.90101700000000	0.07041600000000	0.00000000000000	0.07583100000000	6.84801600000000	184.89151699999999	10.13022700000000	0.37026700000000	0.00000000000000	-0.08323000000000	0.00000000000000	12.73127200000000	0.00000000000000	0.00000000000000	9.20051900000000	0.00000000000000	
18.56993800000000	-61.94108200000000	706.44985399999996	38.26044000000000	0.06967300000000	0.00000000000000	0.07567300000000	8.14113700000000	191.49848100000000	9.59024800000000	0.37037300000000	0.00000000000000	-0.08356300000000	0.00000000000000	12.69542800000000	0.00000000000000	0.00000000000000	9.05093000000000	0.00000000000000	
